<svg width="100" height="70" viewBox="0 0 100 70" fill="none" xmlns="http://www.w3.org/2000/svg">
<g clip-path="url(#clip0_1101_4)">
<path fill-rule="evenodd" clip-rule="evenodd" d="M25.5678 70C25.1561 69.9742 24.7572 69.9742 24.3455 69.9354C23.535 69.8579 22.7244 69.7029 21.9396 69.4704C20.7688 69.1216 19.6367 68.6049 18.6074 67.9461C17.5781 67.2873 16.6389 66.4735 15.8412 65.5435C15.1336 64.7167 15.005 64.4584 14.426 63.5412L1.72742 41.4523C1.22565 40.4835 1.07126 40.251 0.71102 39.2176C0.31218 38.055 0.0805947 36.8407 0.0162656 35.6136C-0.0480635 34.3864 0.0805947 33.1463 0.363643 31.9579C0.55663 31.157 0.826813 30.382 1.16132 29.6328C1.32858 29.2582 1.53443 28.9094 1.72742 28.5348L14.426 6.45876C15.0178 5.54161 15.1336 5.28326 15.8412 4.45654C16.6389 3.52648 17.5781 2.71268 18.6074 2.05388C19.6367 1.39509 20.7688 0.878391 21.9396 0.529618C22.7244 0.297103 23.5221 0.142093 24.3455 0.0645876C24.7572 0.025835 25.1561 0.025835 25.5678 0H74.4451C75.5258 0.05167 75.8088 0.025835 76.8767 0.232515C78.0861 0.46503 79.244 0.865473 80.3376 1.43384C81.4312 2.00221 82.4347 2.71268 83.3225 3.56523C83.9143 4.1336 84.4547 4.75364 84.9179 5.42535C85.1494 5.76121 85.3553 6.10998 85.574 6.45876L98.2726 28.5348C98.4656 28.8965 98.6586 29.2582 98.8387 29.6328C99.1732 30.382 99.4434 31.157 99.6364 31.9579C99.9194 33.1593 100.048 34.3864 99.9837 35.6136C99.9194 36.8407 99.6878 38.0679 99.289 39.2176C98.9287 40.251 98.7743 40.4835 98.2726 41.4523L85.574 63.5283C84.9822 64.4455 84.8664 64.7038 84.1588 65.5305C83.3611 66.4606 82.4219 67.2744 81.3926 67.9332C80.3633 68.592 79.2312 69.1087 78.0604 69.4575C77.2756 69.69 76.4779 69.845 75.6545 69.9225C75.2428 69.9612 74.8439 69.9612 74.4322 69.9871C58.1569 70 41.8559 70 25.5678 70Z" fill="hsl(90, 100%, 70%)"/>
</g>
<defs>
<clipPath id="clip0_1101_4">
<rect width="100" height="69.7157" fill="hsl(90, 100%, 70%)"/>
</clipPath>
</defs>
<svg viewBox="0 0 120 84" fill="none" xmlns="http://www.w3.org/2000/svg">
<g clip-path="url(#clip0_18898_7855)">
<g clip-path="url(#clip1_18898_7855)">
<path d="M60.5948 57.3684C56.413 57.3684 52.4024 55.7072 49.4454 52.7501C46.4884 49.7931 44.8272 45.7826 44.8272 41.6007C44.8272 37.4189 46.4884 33.4083 49.4454 30.4513C52.4024 27.4943 56.413 25.8331 60.5948 25.8331C64.7767 25.8331 68.7872 27.4943 71.7442 30.4513C74.7012 33.4083 76.3625 37.4189 76.3625 41.6007C76.3625 45.7826 74.7012 49.7931 71.7442 52.7501C68.7872 55.7072 64.7767 57.3684 60.5948 57.3684ZM60.5948 51.4555C63.2085 51.4555 65.7151 50.4172 67.5632 48.5691C69.4113 46.721 70.4496 44.2144 70.4496 41.6007C70.4496 38.9871 69.4113 36.4805 67.5632 34.6323C65.7151 32.7842 63.2085 31.746 60.5948 31.746C57.9812 31.746 55.4746 32.7842 53.6264 34.6323C51.7783 36.4805 50.74 38.9871 50.74 41.6007C50.74 44.2144 51.7783 46.721 53.6264 48.5691C55.4746 50.4172 57.9812 51.4555 60.5948 51.4555ZM82.8942 19.3013C83.1689 19.5759 83.3869 19.9019 83.5356 20.2607C83.6843 20.6195 83.7608 21.0041 83.7608 21.3925C83.7608 21.7809 83.6843 22.1655 83.5356 22.5243C83.3869 22.8831 83.1689 23.2091 82.8942 23.4837L78.7118 27.6621C78.3505 28.0513 77.8908 28.3358 77.3814 28.4856C76.8719 28.6355 76.3314 28.6451 75.8169 28.5136C75.3024 28.382 74.8329 28.1141 74.4578 27.7381C74.0828 27.3621 73.8161 26.8919 73.6859 26.3771C73.5546 25.8631 73.564 25.3233 73.7131 24.8142C73.8622 24.3052 74.1456 23.8456 74.5334 23.4837L78.7118 19.3053C79.2662 18.7516 80.0176 18.4407 80.8011 18.4407C81.5845 18.4407 82.3359 18.7516 82.8903 19.3053L82.8942 19.3013ZM46.6562 55.5393C47.2099 56.0937 47.5208 56.8451 47.5208 57.6286C47.5208 58.412 47.2099 59.1634 46.6562 59.7178L42.4778 63.9001C42.2052 64.1826 41.8791 64.408 41.5184 64.5631C41.1578 64.7182 40.7699 64.8 40.3774 64.8036C39.9848 64.8072 39.5955 64.7325 39.2321 64.5841C38.8687 64.4356 38.5385 64.2162 38.2608 63.9388C37.9831 63.6613 37.7634 63.3313 37.6145 62.968C37.4657 62.6048 37.3907 62.2155 37.394 61.823C37.3972 61.4304 37.4786 61.0424 37.6333 60.6817C37.7881 60.3209 38.0132 59.9946 38.2954 59.7217L42.4738 55.5393C42.7484 55.2646 43.0744 55.0467 43.4332 54.898C43.792 54.7493 44.1766 54.6727 44.565 54.6727C44.9534 54.6727 45.338 54.7493 45.6968 54.898C46.0557 55.0467 46.3817 55.2646 46.6562 55.5393ZM60.5948 10.0654C61.3789 10.0654 62.1309 10.3769 62.6853 10.9313C63.2398 11.4858 63.5512 12.2378 63.5512 13.0219V18.9347C63.5512 19.7188 63.2398 20.4708 62.6853 21.0252C62.1309 21.5797 61.3789 21.8912 60.5948 21.8912C59.8107 21.8912 59.0587 21.5797 58.5043 21.0252C57.9499 20.4708 57.6384 19.7188 57.6384 18.9347V13.0219C57.6384 12.2378 57.9499 11.4858 58.5043 10.9313C59.0587 10.3769 59.8107 10.0654 60.5948 10.0654ZM40.8852 41.6007C40.8852 42.3848 40.5738 43.1368 40.0193 43.6912C39.4649 44.2457 38.7129 44.5572 37.9288 44.5572H32.0159C31.2318 44.5572 30.4799 44.2457 29.9254 43.6912C29.371 43.1368 29.0595 42.3848 29.0595 41.6007C29.0595 40.8166 29.371 40.0647 29.9254 39.5102C30.4799 38.9558 31.2318 38.6443 32.0159 38.6443H37.9288C38.7129 38.6443 39.4649 38.9558 40.0193 39.5102C40.5738 40.0647 40.8852 40.8166 40.8852 41.6007ZM92.1301 41.6007C92.1301 42.3848 91.8186 43.1368 91.2642 43.6912C90.7098 44.2457 89.9578 44.5572 89.1737 44.5572H83.2608C82.4767 44.5572 81.7247 44.2457 81.1703 43.6912C80.6159 43.1368 80.3044 42.3848 80.3044 41.6007C80.3044 40.8166 80.6159 40.0647 81.1703 39.5102C81.7247 38.9558 82.4767 38.6443 83.2608 38.6443H89.1737C89.9578 38.6443 90.7098 38.9558 91.2642 39.5102C91.8186 40.0647 92.1301 40.8166 92.1301 41.6007ZM60.5948 61.3103C61.3789 61.3103 62.1309 61.6218 62.6853 62.1762C63.2398 62.7307 63.5512 63.4826 63.5512 64.2667V70.1796C63.5512 70.9637 63.2398 71.7157 62.6853 72.2701C62.1309 72.8246 61.3789 73.136 60.5948 73.136C59.8107 73.136 59.0587 72.8246 58.5043 72.2701C57.9499 71.7157 57.6384 70.9637 57.6384 70.1796V64.2667C57.6384 63.4826 57.9499 62.7307 58.5043 62.1762C59.0587 61.6218 59.8107 61.3103 60.5948 61.3103ZM74.5334 55.5393C75.0877 54.9857 75.8392 54.6747 76.6226 54.6747C77.4061 54.6747 78.1575 54.9857 78.7118 55.5393L82.8942 59.7178C83.433 60.2751 83.7314 61.0218 83.725 61.7969C83.7186 62.5721 83.4081 63.3138 82.8602 63.8622C82.3123 64.4106 81.5709 64.7219 80.7957 64.729C80.0206 64.7361 79.2736 64.4384 78.7158 63.9001L74.5334 59.7217C74.2587 59.4472 74.0407 59.1212 73.8921 58.7623C73.7434 58.4035 73.6668 58.0189 73.6668 57.6305C73.6668 57.2421 73.7434 56.8575 73.8921 56.4987C74.0407 56.1399 74.2587 55.8139 74.5334 55.5393ZM38.2954 19.3013C38.57 19.0266 38.896 18.8087 39.2548 18.66C39.6136 18.5113 39.9982 18.4347 40.3866 18.4347C40.775 18.4347 41.1596 18.5113 41.5184 18.66C41.8772 18.8087 42.2032 19.0266 42.4778 19.3013L46.6562 23.4837C47.1791 24.044 47.4639 24.7855 47.4507 25.5518C47.4374 26.3181 47.1272 27.0492 46.5853 27.5912C46.0433 28.1331 45.3121 28.4434 44.5459 28.4566C43.7796 28.4698 43.0381 28.185 42.4778 27.6621L38.2994 23.4837C37.7457 22.9294 37.4347 22.1779 37.4347 21.3945C37.4347 20.611 37.7457 19.8596 38.2994 19.3053L38.2954 19.3013Z" fill="hsl(90, 100%, 23%)"/>
</g>
</g>
<defs>
<clipPath id="clip0_18898_7855">
<rect width="120" height="84" fill="white"/>
</clipPath>
<clipPath id="clip1_18898_7855">
<rect width="120" height="120" fill="white" transform="translate(0 -18)"/>
</clipPath>
</defs>
</svg></svg>
